# xmcd
#
# Track frame offsets: 
#        150
#        15657
#        43825
#        59577
#        97496
#        116156
#        150189
#        169419
#        195813
#        220735
#        247002
#
# Disc length: 3558 seconds
#
# Revision: 0
# Processed by: cddbd v1.5.2PL0 Copyright (c) Steve Scherf et al.
# Submitted via: ExactAudioCopy v0.99pb3
#
DISCID=990de40b
DTITLE=Sam Carr's Delta Jukes - Live In Europe
DYEAR=2011
DGENRE=Blues
TTITLE0=Shoppin' For My Baby
TTITLE1=So Doggone Blue
TTITLE2=Pretty Pretty Woman
TTITLE3=The Blues Got Me
TTITLE4=Automobile
TTITLE5=Living On Borrowed Time
TTITLE6=Better Take It Slow
TTITLE7=Playin' The Game
TTITLE8=About Money
TTITLE9=You Don't Have To Go
TTITLE10=I'm Not Your Garbage Man
EXTD=
EXTT0=
EXTT1=
EXTT2=
EXTT3=
EXTT4=
EXTT5=
EXTT6=
EXTT7=
EXTT8=
EXTT9=
EXTT10=
PLAYORDER=
